<?xml version="1.0" encoding="UTF-8" standalone="no"?><!DOCTYPE svg PUBLIC "-//W3C//DTD SVG 1.1//EN" "http://www.w3.org/Graphics/SVG/1.1/DTD/svg11.dtd"><svg width="100%" height="100%" viewBox="0 0 1267 1267" version="1.1" xmlns="http://www.w3.org/2000/svg" xmlns:xlink="http://www.w3.org/1999/xlink" xml:space="preserve" xmlns:serif="http://www.serif.com/" style="fill-rule:evenodd;clip-rule:evenodd;stroke-linejoin:round;stroke-miterlimit:2;"><rect x="0" y="-0" width="1266.67" height="1266.67" style="fill:#191f28;"/><path d="M183.75,933.333c1.973,-9.663 10.55,-16.666 20.412,-16.666c11.429,-0 20.834,9.404 20.834,20.833c-0,11.429 -9.405,20.833 -20.834,20.833c-9.862,0 -18.439,-7.003 -20.412,-16.666l-183.75,-0l0,-8.334l183.75,0Zm666.667,200c1.972,-9.663 10.55,-16.666 20.412,-16.666c11.429,-0 20.833,9.404 20.833,20.833c0,11.429 -9.404,20.833 -20.833,20.833c-9.862,0 -18.44,-7.003 -20.412,-16.666l-508.75,-0l-0,-8.334l508.75,0Zm240.833,-191.666c-1.973,9.663 -10.55,16.666 -20.412,16.666c-11.429,0 -20.834,-9.404 -20.834,-20.833c0,-11.429 9.405,-20.833 20.834,-20.833c9.862,-0 18.439,7.003 20.412,16.666l175.417,0l-0,8.334l-175.417,-0Zm0,66.666c-1.973,9.664 -10.55,16.667 -20.412,16.667c-11.429,-0 -20.834,-9.405 -20.834,-20.833c0,-11.429 9.405,-20.834 20.834,-20.834c9.862,0 18.439,7.004 20.412,16.667l175.417,-0l-0,8.333l-175.417,0Zm25.833,-475c1.973,-9.663 10.55,-16.666 20.413,-16.666c11.429,-0 20.833,9.404 20.833,20.833c0,11.429 -9.404,20.833 -20.833,20.833c-9.863,0 -18.44,-7.003 -20.413,-16.666l-359.166,-0c-1.973,9.663 -10.55,16.666 -20.413,16.666c-11.429,0 -20.833,-9.404 -20.833,-20.833c-0,-11.429 9.404,-20.833 20.833,-20.833c9.863,-0 18.44,7.003 20.413,16.666l359.166,0Zm-1066.67,-200c1.972,-9.663 10.55,-16.666 20.412,-16.666c11.429,-0 20.833,9.404 20.833,20.833c0,11.429 -9.404,20.833 -20.833,20.833c-9.862,0 -18.44,-7.003 -20.412,-16.666l-50.417,-0l-0,-8.334l50.417,0Zm774.166,141.667c-1.972,9.663 -10.55,16.667 -20.412,16.667c-11.429,-0 -20.833,-9.405 -20.833,-20.834c-0,-11.428 9.404,-20.833 20.833,-20.833c9.862,-0 18.44,7.003 20.412,16.667l359.167,-0c1.973,-9.664 10.55,-16.667 20.412,-16.667c11.429,-0 20.834,9.405 20.834,20.833c-0,11.429 -9.405,20.834 -20.834,20.834c-9.862,-0 -18.439,-7.004 -20.412,-16.667l-359.167,-0Zm250.417,-424.583c9.663,1.972 16.667,10.55 16.667,20.412c-0,11.429 -9.405,20.833 -20.834,20.833c-11.428,0 -20.833,-9.404 -20.833,-20.833c0,-9.862 7.003,-18.44 16.667,-20.412l-0,-50.417l8.333,-0l0,50.417Zm-266.667,866.666c9.664,1.973 16.667,10.55 16.667,20.413c0,11.429 -9.405,20.833 -20.833,20.833c-11.429,0 -20.834,-9.404 -20.834,-20.833c0,-9.863 7.004,-18.44 16.667,-20.413l-0,-225.833c-9.663,-1.973 -16.667,-10.55 -16.667,-20.412c0,-11.429 9.405,-20.834 20.834,-20.834c11.428,0 20.833,9.405 20.833,20.834c0,9.862 -7.003,18.439 -16.667,20.412l0,225.833Zm200,-825.833l0,242.083l258.334,0l-0,8.334l-266.667,-0l0,-250.417c-9.663,-1.973 -16.667,-10.55 -16.667,-20.412c0,-11.429 9.405,-20.834 20.834,-20.834c11.428,0 20.833,9.405 20.833,20.834c0,9.862 -7.003,18.439 -16.667,20.412Zm66.667,66.667l0,108.75l191.667,-0l-0,8.333l-200,-0l-0,-117.083c-9.664,-1.973 -16.667,-10.55 -16.667,-20.413c0,-11.429 9.405,-20.833 20.833,-20.833c11.429,-0 20.834,9.404 20.834,20.833c-0,9.863 -7.004,18.44 -16.667,20.413Zm-533.333,400l-0,308.75l66.666,-0l0,50.416c9.664,1.973 16.667,10.55 16.667,20.413c-0,11.429 -9.405,20.833 -20.833,20.833c-11.429,0 -20.834,-9.404 -20.834,-20.833c0,-9.863 7.004,-18.44 16.667,-20.413l-0,-42.083l-66.667,-0l0,-317.083c-9.663,-1.973 -16.666,-10.55 -16.666,-20.413c-0,-11.429 9.404,-20.833 20.833,-20.833c11.429,-0 20.833,9.404 20.833,20.833c0,9.863 -7.003,18.44 -16.666,20.413Zm-24.584,-91.25c1.973,-9.664 10.55,-16.667 20.413,-16.667c11.429,-0 20.833,9.405 20.833,20.833c0,11.429 -9.404,20.834 -20.833,20.834c-9.863,-0 -18.44,-7.004 -20.413,-16.667l-42.083,-0l-0,200l-117.083,-0c-1.973,9.663 -10.55,16.667 -20.413,16.667c-11.429,-0 -20.833,-9.405 -20.833,-20.834c-0,-11.428 9.404,-20.833 20.833,-20.833c9.863,-0 18.44,7.003 20.413,16.667l108.75,-0l-0,-200l50.416,-0Zm-25.833,541.666c-1.973,9.664 -10.55,16.667 -20.412,16.667c-11.429,-0 -20.834,-9.405 -20.834,-20.833c0,-11.429 9.405,-20.834 20.834,-20.834c9.862,0 18.439,7.004 20.412,16.667l242.083,-0l0,-308.75c-9.663,-1.973 -16.666,-10.55 -16.666,-20.412c-0,-11.429 9.404,-20.834 20.833,-20.834c11.429,0 20.833,9.405 20.833,20.834c0,9.862 -7.003,18.439 -16.666,20.412l-0,317.083l-250.417,0Zm-66.667,-266.666c-1.972,9.663 -10.55,16.666 -20.412,16.666c-11.429,0 -20.833,-9.404 -20.833,-20.833c-0,-11.429 9.404,-20.833 20.833,-20.833c9.862,-0 18.44,7.003 20.412,16.666l50.417,0l0,200l42.083,0c1.973,-9.663 10.55,-16.666 20.413,-16.666c11.429,-0 20.833,9.404 20.833,20.833c0,11.429 -9.404,20.833 -20.833,20.833c-9.863,0 -18.44,-7.003 -20.413,-16.666l-50.416,-0l-0,-200l-42.084,-0Zm-149.583,442.083c9.663,1.973 16.667,10.55 16.667,20.412c-0,11.429 -9.405,20.834 -20.834,20.834c-11.428,-0 -20.833,-9.405 -20.833,-20.834c0,-9.862 7.003,-18.439 16.667,-20.412l-0,-42.083l-58.334,-0l0,125l-8.333,-0l-0,-133.334l75,0l0,50.417Zm708.75,-450.417c1.973,-9.663 10.55,-16.666 20.412,-16.666c11.429,-0 20.834,9.404 20.834,20.833c-0,11.429 -9.405,20.833 -20.834,20.833c-9.862,0 -18.439,-7.003 -20.412,-16.666l-42.083,-0l-0,391.666l200,0l-0,133.334l-8.334,-0l0,-125l-200,-0l0,-408.334l50.417,0Zm107.5,-125c-1.973,9.664 -10.55,16.667 -20.412,16.667c-11.429,-0 -20.834,-9.405 -20.834,-20.833c0,-11.429 9.405,-20.834 20.834,-20.834c9.862,0 18.439,7.004 20.412,16.667l50.417,-0l-0,183.75c9.663,1.973 16.666,10.55 16.666,20.412c0,11.429 -9.404,20.834 -20.833,20.834c-11.429,-0 -20.833,-9.405 -20.833,-20.834c-0,-9.862 7.003,-18.439 16.666,-20.412l0,-175.417l-42.083,0Zm-266.667,400c-1.972,9.664 -10.55,16.667 -20.412,16.667c-11.429,-0 -20.833,-9.405 -20.833,-20.833c-0,-11.429 9.404,-20.834 20.833,-20.834c9.862,0 18.44,7.004 20.412,16.667l42.084,-0l-0,-333.333l66.666,-0l0,-58.334l-175.416,0c-1.973,9.664 -10.55,16.667 -20.413,16.667c-11.429,-0 -20.833,-9.405 -20.833,-20.833c-0,-11.429 9.404,-20.834 20.833,-20.834c9.863,0 18.44,7.004 20.413,16.667l183.75,-0l-0,75l-66.667,-0l0,333.333l-50.417,0Zm359.167,-875c1.973,-9.663 10.55,-16.666 20.412,-16.666c11.429,-0 20.834,9.404 20.834,20.833c-0,11.429 -9.405,20.833 -20.834,20.833c-9.862,0 -18.439,-7.003 -20.412,-16.666l-50.417,-0l0,-141.667l8.334,-0l-0,133.333l42.083,0Zm-775.417,291.25l0,183.75l-183.75,0c-1.972,9.664 -10.55,16.667 -20.412,16.667c-11.429,-0 -20.833,-9.405 -20.833,-20.833c-0,-11.429 9.404,-20.834 20.833,-20.834c9.862,0 18.44,7.004 20.412,16.667l175.417,-0l0,-175.417c-9.663,-1.972 -16.667,-10.55 -16.667,-20.412c0,-11.429 9.405,-20.833 20.834,-20.833c11.428,-0 20.833,9.404 20.833,20.833c0,9.862 -7.003,18.44 -16.667,20.412Zm-183.75,-282.916c-1.972,9.663 -10.55,16.666 -20.412,16.666c-11.429,0 -20.833,-9.404 -20.833,-20.833c-0,-11.429 9.404,-20.833 20.833,-20.833c9.862,-0 18.44,7.003 20.412,16.666l108.75,0l0,-133.333l8.334,-0l-0,141.667l-117.084,-0Zm250.417,16.25l0,117.083l-133.333,-0l-0,266.667l-50.417,-0c-1.973,9.663 -10.55,16.666 -20.412,16.666c-11.429,0 -20.834,-9.404 -20.834,-20.833c0,-11.429 9.405,-20.833 20.834,-20.833c9.862,-0 18.439,7.003 20.412,16.666l42.083,0l0,-266.666l133.334,-0l-0,-108.75c-9.664,-1.973 -16.667,-10.55 -16.667,-20.413c0,-11.429 9.405,-20.833 20.833,-20.833c11.429,-0 20.834,9.404 20.834,20.833c-0,9.863 -7.004,18.44 -16.667,20.413Zm-50.417,183.75c-1.972,9.663 -10.55,16.666 -20.412,16.666c-11.429,0 -20.833,-9.404 -20.833,-20.833c-0,-11.429 9.404,-20.833 20.833,-20.833c9.862,-0 18.44,7.003 20.412,16.666l108.75,0l0,-175.416c-9.663,-1.973 -16.666,-10.55 -16.666,-20.413c-0,-11.429 9.404,-20.833 20.833,-20.833c11.429,-0 20.833,9.404 20.833,20.833c0,9.863 -7.003,18.44 -16.666,20.413l-0,183.75l-117.084,-0Zm66.667,-266.667c-1.973,9.663 -10.55,16.667 -20.412,16.667c-11.429,-0 -20.834,-9.405 -20.834,-20.834c0,-11.428 9.405,-20.833 20.834,-20.833c9.862,-0 18.439,7.003 20.412,16.667l117.083,-0l0,183.75c9.664,1.972 16.667,10.55 16.667,20.412c0,11.429 -9.405,20.833 -20.833,20.833c-11.429,0 -20.834,-9.404 -20.834,-20.833c0,-9.862 7.004,-18.44 16.667,-20.412l0,-175.417l-108.75,-0Zm425.833,1125c1.973,-9.663 10.55,-16.667 20.413,-16.667c11.429,0 20.833,9.405 20.833,20.834c0,11.428 -9.404,20.833 -20.833,20.833c-9.863,-0 -18.44,-7.003 -20.413,-16.667l-508.75,0l0,58.334l-8.333,-0l0,-66.667l517.083,-0Zm91.25,-575.417l0,42.084l66.667,-0l0,141.666l-66.667,0l0,258.334l200,-0l0,200l-8.333,-0l0,-191.667l-200,-0l0,-275l66.667,-0l-0,-125l-66.667,-0l0,-50.417c-9.663,-1.972 -16.667,-10.55 -16.667,-20.412c0,-11.429 9.405,-20.833 20.834,-20.833c11.428,-0 20.833,9.404 20.833,20.833c0,9.862 -7.003,18.44 -16.667,20.412Zm-783.75,-549.583c-1.972,9.663 -10.55,16.667 -20.412,16.667c-11.429,-0 -20.833,-9.405 -20.833,-20.834c-0,-11.428 9.404,-20.833 20.833,-20.833c9.862,-0 18.44,7.003 20.412,16.667l42.084,-0l-0,-58.334l-66.667,0l0,-8.333l75,-0l0,75l-50.417,-0Zm466.667,133.333c-1.973,9.664 -10.55,16.667 -20.412,16.667c-11.429,-0 -20.834,-9.405 -20.834,-20.833c0,-11.429 9.405,-20.834 20.834,-20.834c9.862,0 18.439,7.004 20.412,16.667l108.75,-0l0,-200l208.333,-0l0,8.333l-200,0l0,200l-117.083,0Zm-200,-200c-1.973,9.666 -10.552,16.671 -20.417,16.671c-11.431,0 -20.837,-9.406 -20.837,-20.837c-0,-1.4 0.141,-2.796 0.421,-4.167l8.625,-0c-0.469,1.333 -0.709,2.735 -0.709,4.148c0,6.857 5.643,12.5 12.5,12.5c6.858,0 12.5,-5.643 12.5,-12.5c0,-1.413 -0.239,-2.815 -0.708,-4.148l259.042,-0l-0,141.667l-75,-0l-0,-50.417c-9.664,-1.973 -16.667,-10.55 -16.667,-20.412c0,-11.429 9.405,-20.834 20.833,-20.834c11.429,0 20.834,9.405 20.834,20.834c-0,9.862 -7.004,18.439 -16.667,20.412l0,42.083l58.333,0l0,-125l-242.083,0Zm0,400c-1.973,9.664 -10.55,16.667 -20.412,16.667c-11.429,-0 -20.834,-9.405 -20.834,-20.833c0,-11.429 9.405,-20.834 20.834,-20.834c9.862,0 18.439,7.004 20.412,16.667l79.583,-0l133.334,-133.333l162.5,-0l-0,-175.417c-9.664,-1.973 -16.667,-10.55 -16.667,-20.412c0,-11.429 9.405,-20.834 20.833,-20.834c11.429,0 20.834,9.405 20.834,20.834c-0,9.862 -7.004,18.439 -16.667,20.412l0,183.75l-167.375,-0l-133.333,133.333l-83.042,0Zm117.083,375.417c9.664,1.973 16.667,10.55 16.667,20.412c0,11.429 -9.405,20.834 -20.833,20.834c-11.429,-0 -20.834,-9.405 -20.834,-20.834c0,-9.862 7.004,-18.439 16.667,-20.412l0,-318.792l131.625,-131.625l201.708,0l0,-242.083c-9.663,-1.973 -16.666,-10.55 -16.666,-20.412c-0,-11.429 9.404,-20.834 20.833,-20.834c11.429,0 20.833,9.405 20.833,20.834c0,9.862 -7.003,18.439 -16.666,20.412l-0,250.417l-206.625,-0l-126.709,126.708l0,315.375Zm66.667,133.333c9.663,1.973 16.667,10.55 16.667,20.413c-0,11.429 -9.405,20.833 -20.834,20.833c-11.428,0 -20.833,-9.404 -20.833,-20.833c0,-9.863 7.003,-18.44 16.667,-20.413l-0,-414.625l102.458,-102.458l481.292,-0c1.666,-8.169 8.081,-14.584 16.25,-16.25l-0,8.625c-4.992,1.756 -8.352,6.5 -8.352,11.792c-0,5.291 3.36,10.035 8.352,11.791l-0,8.625c-8.169,-1.666 -14.584,-8.081 -16.25,-16.25l-477.875,0l-97.542,97.542l0,411.208Zm-600,-266.666c9.663,1.972 16.667,10.55 16.667,20.412c-0,11.429 -9.405,20.833 -20.834,20.833c-11.428,0 -20.833,-9.404 -20.833,-20.833c0,-9.862 7.003,-18.44 16.667,-20.412l-0,-14.625l200,-200l-0,-235.792l133.333,-0l0,-200l8.333,-0l0,208.333l-133.333,0l0,230.875l-200,200l0,11.209Zm133.333,-425.834l0,181.292l-200,200l0,260.792l108.75,-0c1.973,-9.664 10.55,-16.667 20.413,-16.667c11.429,-0 20.833,9.405 20.833,20.833c0,11.429 -9.404,20.834 -20.833,20.834c-9.863,-0 -18.44,-7.004 -20.413,-16.667l-117.083,-0l0,-272.542l200,-200l0,-177.875c-9.663,-1.972 -16.667,-10.55 -16.667,-20.412c0,-11.429 9.405,-20.833 20.834,-20.833c11.428,-0 20.833,9.404 20.833,20.833c0,9.862 -7.003,18.44 -16.667,20.412Zm-66.666,66.667l-0,81.292l-141.667,141.666l0,-11.75l133.333,-133.333l0,-77.875c-9.663,-1.973 -16.666,-10.55 -16.666,-20.412c-0,-11.429 9.404,-20.834 20.833,-20.834c11.429,0 20.833,9.405 20.833,20.834c0,9.862 -7.003,18.439 -16.666,20.412Zm-91.25,-157.917c1.972,-9.663 10.55,-16.666 20.412,-16.666c11.429,-0 20.833,9.404 20.833,20.833c0,11.429 -9.404,20.833 -20.833,20.833c-9.862,0 -18.44,-7.003 -20.412,-16.666l-11.209,-0l-39.208,39.208l0,-11.708l35.792,-35.834l14.625,0Zm1107.5,75c-1.973,9.664 -10.55,16.667 -20.413,16.667c-11.429,-0 -20.833,-9.405 -20.833,-20.833c-0,-11.429 9.404,-20.834 20.833,-20.834c9.863,0 18.44,7.004 20.413,16.667l77.875,-0l30.875,-30.875l-0,11.75l-27.459,27.458l-81.291,0Zm-66.667,666.667c-1.973,9.663 -10.55,16.667 -20.412,16.667c-11.429,-0 -20.834,-9.405 -20.834,-20.834c0,-11.428 9.405,-20.833 20.834,-20.833c9.862,-0 18.439,7.003 20.412,16.667l108.75,-0l0,-297.542l66.667,-66.667l-0,11.75l-58.334,58.334l0,302.458l-117.083,-0Zm-866.667,133.333c-1.972,9.664 -10.55,16.667 -20.412,16.667c-11.429,-0 -20.833,-9.405 -20.833,-20.833c-0,-11.429 9.404,-20.834 20.833,-20.834c9.862,0 18.44,7.004 20.412,16.667l42.084,-0l-0,-94.125l-97.542,-97.542l-77.875,0c-1.973,9.664 -10.55,16.667 -20.412,16.667c-11.429,-0 -20.834,-9.405 -20.834,-20.833c0,-11.429 9.405,-20.834 20.834,-20.834c9.862,0 18.439,7.004 20.412,16.667l81.292,-0l102.458,102.458l0,105.875l-50.417,0Zm625.834,58.334c1.972,-9.664 10.55,-16.667 20.412,-16.667c11.429,-0 20.833,9.405 20.833,20.833c0,11.429 -9.404,20.834 -20.833,20.834c-9.862,-0 -18.44,-7.004 -20.412,-16.667l-450.417,-0l0,-235.833l-164.167,-164.167l-77.916,-0c-1.973,9.663 -10.55,16.667 -20.413,16.667c-11.429,-0 -20.833,-9.405 -20.833,-20.834c-0,-11.428 9.404,-20.833 20.833,-20.833c9.863,-0 18.44,7.003 20.413,16.667l81.25,-0l169.166,169.166l0,230.834l442.084,-0Zm-625.834,8.333c-1.972,9.663 -10.55,16.667 -20.412,16.667c-11.429,-0 -20.833,-9.405 -20.833,-20.834c-0,-11.428 9.404,-20.833 20.833,-20.833c9.862,-0 18.44,7.003 20.412,16.667l108.75,-0l0,-194.125l-130.875,-130.875l-111.208,-0c-1.973,9.663 -10.55,16.666 -20.412,16.666c-11.429,0 -20.834,-9.404 -20.834,-20.833c0,-11.429 9.405,-20.833 20.834,-20.833c9.862,-0 18.439,7.003 20.412,16.666l114.625,0l135.792,135.792l-0,205.875l-117.084,-0Zm-82.916,-1075l-0,172.542l-102.459,102.458l-39.208,-0l0,-8.333l35.792,-0l97.541,-97.542l0,-169.125l8.334,-0Zm-133.334,1250.42c8.169,1.666 14.584,8.081 16.25,16.25l-8.625,-0c-1.759,-4.987 -6.5,-8.342 -11.788,-8.342c-1.42,0 -2.831,0.243 -4.17,0.717l0,-192.375l75,-0l0,200l-8.333,-0l-0,-191.667l-58.334,-0l0,175.417Zm133.334,-250.417l-0,266.667l-8.334,-0l0,-258.334l-133.333,0l0,-8.333l141.667,-0Zm-66.667,-925l-75,-0l0,-8.333l66.667,-0l-0,-66.667l8.333,-0l0,75Zm1133.33,-8.333l58.334,-0l-0,8.333l-66.667,-0l0,-75l8.333,-0l0,66.667Zm-133.333,1133.33l0,66.667l-8.333,-0l-0,-58.334l-58.334,0l0,58.334l-8.333,-0l0,-66.667l75,-0Zm-1075,-816.25c1.345,-0.268 2.712,-0.402 4.084,-0.402c11.437,-0 20.863,9.381 20.916,20.819c0,0.001 0,0.003 0,0.004c0,11.429 -9.405,20.833 -20.833,20.833c-1.4,0 -2.796,-0.141 -4.167,-0.421l0,-8.625c1.333,0.469 2.735,0.709 4.148,0.709c6.857,-0 12.5,-5.643 12.5,-12.5c0,-6.858 -5.643,-12.5 -12.5,-12.5c-1.413,-0 -2.815,0.239 -4.148,0.708l0,-8.625Zm333.333,749.583l8.334,0l-0,133.334l-8.334,-0l0,-133.334Zm157.917,133.334l-8.625,-0c-1.756,-4.992 -6.5,-8.352 -11.792,-8.352c-5.291,-0 -10.035,3.36 -11.791,8.352l-8.625,-0c1.964,-9.673 10.546,-16.688 20.416,-16.688c9.871,0 18.453,7.015 20.417,16.688Zm-466.667,-1266.67c0.266,1.339 0.399,2.701 0.399,4.066c0,11.474 -9.442,20.916 -20.916,20.916c-1.365,0 -2.727,-0.133 -4.066,-0.399l0,-8.625c1.341,0.476 2.754,0.719 4.177,0.719c6.857,-0 12.5,-5.643 12.5,-12.5c-0,-1.423 -0.243,-2.836 -0.719,-4.177l8.625,-0Zm1225.83,-0l8.625,-0c-0.474,1.339 -0.717,2.75 -0.717,4.17c0,5.288 3.355,10.029 8.342,11.788l-0,8.625c-9.666,-1.97 -16.672,-10.549 -16.672,-20.413c0,-1.401 0.141,-2.798 0.422,-4.17Zm16.25,1250.42l-0,8.625c-3.562,1.257 -6.368,4.063 -7.625,7.625l-8.625,-0c1.666,-8.169 8.081,-14.584 16.25,-16.25Zm-862.5,-833.75c6.857,-0 12.5,-5.643 12.5,-12.5c-0,-6.858 -5.643,-12.5 -12.5,-12.5c-6.858,-0 -12.5,5.642 -12.5,12.5c-0,6.857 5.642,12.5 12.5,12.5Zm-0,-66.667c6.857,-0 12.5,-5.643 12.5,-12.5c-0,-6.857 -5.643,-12.5 -12.5,-12.5c-6.858,-0 -12.5,5.643 -12.5,12.5c-0,6.857 5.642,12.5 12.5,12.5Zm66.666,66.667c6.858,-0 12.5,-5.643 12.5,-12.5c0,-6.858 -5.642,-12.5 -12.5,-12.5c-6.857,-0 -12.5,5.642 -12.5,12.5c0,6.857 5.643,12.5 12.5,12.5Zm66.667,66.666c6.857,0 12.5,-5.642 12.5,-12.5c0,-6.857 -5.643,-12.5 -12.5,-12.5c-6.857,0 -12.5,5.643 -12.5,12.5c0,6.858 5.643,12.5 12.5,12.5Zm0,66.667c6.857,-0 12.5,-5.643 12.5,-12.5c0,-6.857 -5.643,-12.5 -12.5,-12.5c-6.857,-0 -12.5,5.643 -12.5,12.5c0,6.857 5.643,12.5 12.5,12.5Zm-200,133.333c6.857,0 12.5,-5.642 12.5,-12.5c0,-6.857 -5.643,-12.5 -12.5,-12.5c-6.857,0 -12.5,5.643 -12.5,12.5c0,6.858 5.643,12.5 12.5,12.5Zm66.667,66.667c6.857,-0 12.5,-5.643 12.5,-12.5c-0,-6.857 -5.643,-12.5 -12.5,-12.5c-6.858,-0 -12.5,5.643 -12.5,12.5c-0,6.857 5.642,12.5 12.5,12.5Zm133.333,200c6.857,-0 12.5,-5.643 12.5,-12.5c0,-6.857 -5.643,-12.5 -12.5,-12.5c-6.857,-0 -12.5,5.643 -12.5,12.5c0,6.857 5.643,12.5 12.5,12.5Zm-66.667,66.667c6.858,-0 12.5,-5.643 12.5,-12.5c0,-6.858 -5.642,-12.5 -12.5,-12.5c-6.857,-0 -12.5,5.642 -12.5,12.5c0,6.857 5.643,12.5 12.5,12.5Zm133.334,-66.667c6.857,-0 12.5,-5.643 12.5,-12.5c-0,-6.857 -5.643,-12.5 -12.5,-12.5c-6.858,-0 -12.5,5.643 -12.5,12.5c-0,6.857 5.642,12.5 12.5,12.5Zm-0,-133.333c6.857,-0 12.5,-5.643 12.5,-12.5c-0,-6.858 -5.643,-12.5 -12.5,-12.5c-6.858,-0 -12.5,5.642 -12.5,12.5c-0,6.857 5.642,12.5 12.5,12.5Zm66.666,133.333c6.858,-0 12.5,-5.643 12.5,-12.5c0,-6.857 -5.642,-12.5 -12.5,-12.5c-6.857,-0 -12.5,5.643 -12.5,12.5c0,6.857 5.643,12.5 12.5,12.5Zm133.334,66.667c6.857,-0 12.5,-5.643 12.5,-12.5c-0,-6.858 -5.643,-12.5 -12.5,-12.5c-6.858,-0 -12.5,5.642 -12.5,12.5c-0,6.857 5.642,12.5 12.5,12.5Zm-0,-66.667c6.857,-0 12.5,-5.643 12.5,-12.5c-0,-6.857 -5.643,-12.5 -12.5,-12.5c-6.858,-0 -12.5,5.643 -12.5,12.5c-0,6.857 5.642,12.5 12.5,12.5Zm-66.667,-266.667c6.857,0 12.5,-5.642 12.5,-12.5c0,-6.857 -5.643,-12.5 -12.5,-12.5c-6.857,0 -12.5,5.643 -12.5,12.5c0,6.858 5.643,12.5 12.5,12.5Zm66.667,0c6.857,0 12.5,-5.642 12.5,-12.5c-0,-6.857 -5.643,-12.5 -12.5,-12.5c-6.858,0 -12.5,5.643 -12.5,12.5c-0,6.858 5.642,12.5 12.5,12.5Zm66.666,400c6.858,0 12.5,-5.642 12.5,-12.5c0,-6.857 -5.642,-12.5 -12.5,-12.5c-6.857,0 -12.5,5.643 -12.5,12.5c0,6.858 5.643,12.5 12.5,12.5Zm0,66.667c6.858,-0 12.5,-5.643 12.5,-12.5c0,-6.857 -5.642,-12.5 -12.5,-12.5c-6.857,-0 -12.5,5.643 -12.5,12.5c0,6.857 5.643,12.5 12.5,12.5Zm66.667,66.667c6.857,-0 12.5,-5.643 12.5,-12.5c0,-6.858 -5.643,-12.5 -12.5,-12.5c-6.857,-0 -12.5,5.642 -12.5,12.5c0,6.857 5.643,12.5 12.5,12.5Zm66.667,-600c6.857,-0 12.5,-5.643 12.5,-12.5c-0,-6.858 -5.643,-12.5 -12.5,-12.5c-6.858,-0 -12.5,5.642 -12.5,12.5c-0,6.857 5.642,12.5 12.5,12.5Zm-0,133.333c6.857,-0 12.5,-5.643 12.5,-12.5c-0,-6.857 -5.643,-12.5 -12.5,-12.5c-6.858,-0 -12.5,5.643 -12.5,12.5c-0,6.857 5.642,12.5 12.5,12.5Zm66.666,-133.333c6.858,-0 12.5,-5.643 12.5,-12.5c0,-6.858 -5.642,-12.5 -12.5,-12.5c-6.857,-0 -12.5,5.642 -12.5,12.5c0,6.857 5.643,12.5 12.5,12.5Zm66.667,-66.667c6.857,-0 12.5,-5.643 12.5,-12.5c0,-6.857 -5.643,-12.5 -12.5,-12.5c-6.857,-0 -12.5,5.643 -12.5,12.5c0,6.857 5.643,12.5 12.5,12.5Zm-400,-0c6.857,-0 12.5,-5.643 12.5,-12.5c0,-6.857 -5.643,-12.5 -12.5,-12.5c-6.857,-0 -12.5,5.643 -12.5,12.5c0,6.857 5.643,12.5 12.5,12.5Zm0,66.667c6.857,-0 12.5,-5.643 12.5,-12.5c0,-6.858 -5.643,-12.5 -12.5,-12.5c-6.857,-0 -12.5,5.642 -12.5,12.5c0,6.857 5.643,12.5 12.5,12.5Zm66.667,-133.334c6.857,0 12.5,-5.642 12.5,-12.5c-0,-6.857 -5.643,-12.5 -12.5,-12.5c-6.858,0 -12.5,5.643 -12.5,12.5c-0,6.858 5.642,12.5 12.5,12.5Zm400,0c6.857,0 12.5,-5.642 12.5,-12.5c-0,-6.857 -5.643,-12.5 -12.5,-12.5c-6.858,0 -12.5,5.643 -12.5,12.5c-0,6.858 5.642,12.5 12.5,12.5Zm-66.667,-266.666c6.857,-0 12.5,-5.643 12.5,-12.5c0,-6.858 -5.643,-12.5 -12.5,-12.5c-6.857,-0 -12.5,5.642 -12.5,12.5c0,6.857 5.643,12.5 12.5,12.5Zm66.667,-66.667c6.857,-0 12.5,-5.643 12.5,-12.5c-0,-6.857 -5.643,-12.5 -12.5,-12.5c-6.858,-0 -12.5,5.643 -12.5,12.5c-0,6.857 5.642,12.5 12.5,12.5Zm-133.334,-0c6.858,-0 12.5,-5.643 12.5,-12.5c0,-6.857 -5.642,-12.5 -12.5,-12.5c-6.857,-0 -12.5,5.643 -12.5,12.5c0,6.857 5.643,12.5 12.5,12.5Zm0,-66.667c6.858,0 12.5,-5.642 12.5,-12.5c0,-6.857 -5.642,-12.5 -12.5,-12.5c-6.857,0 -12.5,5.643 -12.5,12.5c0,6.858 5.643,12.5 12.5,12.5Zm-66.666,0c6.857,0 12.5,-5.642 12.5,-12.5c-0,-6.857 -5.643,-12.5 -12.5,-12.5c-6.858,0 -12.5,5.643 -12.5,12.5c-0,6.858 5.642,12.5 12.5,12.5Zm-66.667,0c6.857,0 12.5,-5.642 12.5,-12.5c0,-6.857 -5.643,-12.5 -12.5,-12.5c-6.857,0 -12.5,5.643 -12.5,12.5c0,6.858 5.643,12.5 12.5,12.5Zm-66.667,0c6.858,0 12.5,-5.642 12.5,-12.5c0,-6.857 -5.642,-12.5 -12.5,-12.5c-6.857,0 -12.5,5.643 -12.5,12.5c0,6.858 5.643,12.5 12.5,12.5Zm-666.666,66.667c6.857,-0 12.5,-5.643 12.5,-12.5c-0,-6.857 -5.643,-12.5 -12.5,-12.5c-6.858,-0 -12.5,5.643 -12.5,12.5c-0,6.857 5.642,12.5 12.5,12.5Zm-133.334,-0c6.858,-0 12.5,-5.643 12.5,-12.5c0,-6.857 -5.642,-12.5 -12.5,-12.5c-6.857,-0 -12.5,5.643 -12.5,12.5c0,6.857 5.643,12.5 12.5,12.5Zm133.334,66.667c6.857,-0 12.5,-5.643 12.5,-12.5c-0,-6.858 -5.643,-12.5 -12.5,-12.5c-6.858,-0 -12.5,5.642 -12.5,12.5c-0,6.857 5.642,12.5 12.5,12.5Zm-66.667,66.666c6.857,0 12.5,-5.642 12.5,-12.5c0,-6.857 -5.643,-12.5 -12.5,-12.5c-6.857,0 -12.5,5.643 -12.5,12.5c0,6.858 5.643,12.5 12.5,12.5Zm66.667,-200c6.857,0 12.5,-5.642 12.5,-12.5c-0,-6.857 -5.643,-12.5 -12.5,-12.5c-6.858,0 -12.5,5.643 -12.5,12.5c-0,6.858 5.642,12.5 12.5,12.5Zm-0,1000c6.857,0 12.5,-5.642 12.5,-12.5c-0,-6.857 -5.643,-12.5 -12.5,-12.5c-6.858,0 -12.5,5.643 -12.5,12.5c-0,6.858 5.642,12.5 12.5,12.5Zm66.666,133.334c6.858,-0 12.5,-5.643 12.5,-12.5c0,-6.858 -5.642,-12.5 -12.5,-12.5c-6.857,-0 -12.5,5.642 -12.5,12.5c0,6.857 5.643,12.5 12.5,12.5Zm-66.666,-266.667c6.857,-0 12.5,-5.643 12.5,-12.5c-0,-6.857 -5.643,-12.5 -12.5,-12.5c-6.858,-0 -12.5,5.643 -12.5,12.5c-0,6.857 5.642,12.5 12.5,12.5Zm-0,66.667c6.857,-0 12.5,-5.643 12.5,-12.5c-0,-6.858 -5.643,-12.5 -12.5,-12.5c-6.858,-0 -12.5,5.642 -12.5,12.5c-0,6.857 5.642,12.5 12.5,12.5Zm-66.667,-133.334c6.857,0 12.5,-5.642 12.5,-12.5c0,-6.857 -5.643,-12.5 -12.5,-12.5c-6.857,0 -12.5,5.643 -12.5,12.5c0,6.858 5.643,12.5 12.5,12.5Zm333.333,-733.333c6.858,-0 12.5,-5.643 12.5,-12.5c0,-6.857 -5.642,-12.5 -12.5,-12.5c-6.857,-0 -12.5,5.643 -12.5,12.5c0,6.857 5.643,12.5 12.5,12.5Zm66.667,-0c6.857,-0 12.5,-5.643 12.5,-12.5c0,-6.857 -5.643,-12.5 -12.5,-12.5c-6.857,-0 -12.5,5.643 -12.5,12.5c0,6.857 5.643,12.5 12.5,12.5Zm-66.667,-66.667c6.858,0 12.5,-5.642 12.5,-12.5c0,-6.857 -5.642,-12.5 -12.5,-12.5c-6.857,0 -12.5,5.643 -12.5,12.5c0,6.858 5.643,12.5 12.5,12.5Zm133.334,200c6.857,0 12.5,-5.642 12.5,-12.5c-0,-6.857 -5.643,-12.5 -12.5,-12.5c-6.858,0 -12.5,5.643 -12.5,12.5c-0,6.858 5.642,12.5 12.5,12.5Zm66.666,-66.666c6.858,-0 12.5,-5.643 12.5,-12.5c0,-6.858 -5.642,-12.5 -12.5,-12.5c-6.857,-0 -12.5,5.642 -12.5,12.5c0,6.857 5.643,12.5 12.5,12.5Zm0,-133.334c6.858,0 12.5,-5.642 12.5,-12.5c0,-6.857 -5.642,-12.5 -12.5,-12.5c-6.857,0 -12.5,5.643 -12.5,12.5c0,6.858 5.643,12.5 12.5,12.5Zm466.667,733.334c6.857,-0 12.5,-5.643 12.5,-12.5c0,-6.858 -5.643,-12.5 -12.5,-12.5c-6.857,-0 -12.5,5.642 -12.5,12.5c0,6.857 5.643,12.5 12.5,12.5Zm-66.667,66.666c6.858,0 12.5,-5.642 12.5,-12.5c0,-6.857 -5.642,-12.5 -12.5,-12.5c-6.857,0 -12.5,5.643 -12.5,12.5c0,6.858 5.643,12.5 12.5,12.5Zm0,66.667c6.858,-0 12.5,-5.643 12.5,-12.5c0,-6.857 -5.642,-12.5 -12.5,-12.5c-6.857,-0 -12.5,5.643 -12.5,12.5c0,6.857 5.643,12.5 12.5,12.5Zm0,66.667c6.858,-0 12.5,-5.643 12.5,-12.5c0,-6.858 -5.642,-12.5 -12.5,-12.5c-6.857,-0 -12.5,5.642 -12.5,12.5c0,6.857 5.643,12.5 12.5,12.5Zm-1000,-266.667c6.858,-0 12.5,-5.643 12.5,-12.5c0,-6.857 -5.642,-12.5 -12.5,-12.5c-6.857,-0 -12.5,5.643 -12.5,12.5c0,6.857 5.643,12.5 12.5,12.5Zm0,66.667c6.858,-0 12.5,-5.643 12.5,-12.5c0,-6.858 -5.642,-12.5 -12.5,-12.5c-6.857,-0 -12.5,5.642 -12.5,12.5c0,6.857 5.643,12.5 12.5,12.5Zm0,-133.334c6.858,0 12.5,-5.642 12.5,-12.5c0,-6.857 -5.642,-12.5 -12.5,-12.5c-6.857,0 -12.5,5.643 -12.5,12.5c0,6.858 5.643,12.5 12.5,12.5Zm66.667,0c6.857,0 12.5,-5.642 12.5,-12.5c0,-6.857 -5.643,-12.5 -12.5,-12.5c-6.857,0 -12.5,5.643 -12.5,12.5c0,6.858 5.643,12.5 12.5,12.5Zm-66.667,-333.333c6.858,-0 12.5,-5.643 12.5,-12.5c0,-6.857 -5.642,-12.5 -12.5,-12.5c-6.857,-0 -12.5,5.643 -12.5,12.5c0,6.857 5.643,12.5 12.5,12.5Zm133.334,266.667c6.857,-0 12.5,-5.643 12.5,-12.5c-0,-6.858 -5.643,-12.5 -12.5,-12.5c-6.858,-0 -12.5,5.642 -12.5,12.5c-0,6.857 5.642,12.5 12.5,12.5Zm66.666,-66.667c6.858,-0 12.5,-5.643 12.5,-12.5c0,-6.857 -5.642,-12.5 -12.5,-12.5c-6.857,-0 -12.5,5.643 -12.5,12.5c0,6.857 5.643,12.5 12.5,12.5Z" style="fill:#30cdff;fill-rule:nonzero;"/></svg>